<!--?xml version="1.0" standalone="no"?-->
              <svg id="sw-js-blob-svg" viewBox="0 0 100 100" xmlns="http://www.w3.org/2000/svg" version="1.1">
                    <defs> 
                        <linearGradient id="sw-gradient" x1="0" x2="1" y1="1" y2="0">
                            <stop id="stop1" stop-color="rgba(0, 49, 104, 1)" offset="0%"></stop>
                            <stop id="stop2" stop-color="rgba(0, 49, 104, 1)" offset="100%"></stop>
                        </linearGradient>
                    </defs>
                <path fill="url(#sw-gradient)" d="M19.1,-33.6C25.6,-29.3,32.4,-26,36.2,-20.5C40,-15.1,40.9,-7.5,40.6,-0.2C40.3,7.2,38.9,14.4,35.9,21.3C32.9,28.1,28.3,34.6,22,39C15.8,43.5,7.9,45.9,-0.2,46.2C-8.3,46.5,-16.5,44.7,-22.7,40.2C-29,35.8,-33.2,28.7,-37.4,21.5C-41.5,14.4,-45.7,7.2,-45.6,0.1C-45.4,-7,-41,-14.1,-36.7,-21C-32.4,-28,-28.3,-34.9,-22.2,-39.4C-16.1,-43.9,-8,-46.1,-0.9,-44.6C6.3,-43.1,12.6,-37.9,19.1,-33.6Z" width="100%" height="100%" transform="translate(50 50)" stroke-width="0" style="transition: all 0.3s ease 0s;" stroke="url(#sw-gradient)"></path>
              </svg>