<!--?xml version="1.0" standalone="no"?-->
              <svg id="sw-js-blob-svg" viewBox="0 0 100 100" xmlns="http://www.w3.org/2000/svg" version="1.1">
                    <defs> 
                        <linearGradient id="sw-gradient" x1="0" x2="1" y1="1" y2="0">
                            <stop id="stop1" stop-color="rgba(74, 85, 162, 1)" offset="0%"></stop>
                            <stop id="stop2" stop-color="rgba(74, 85, 162, 1)" offset="100%"></stop>
                        </linearGradient>
                    </defs>
                <path fill="url(#sw-gradient)" d="M19.2,-33.1C25.4,-29.6,31.5,-25.6,36.5,-20C41.5,-14.4,45.5,-7.2,45.2,-0.2C44.9,6.8,40.2,13.7,35.3,19.4C30.3,25.1,25.1,29.7,19.1,33.4C13.2,37.2,6.6,40,-0.1,40.2C-6.7,40.3,-13.5,37.6,-18.9,33.6C-24.3,29.6,-28.4,24.2,-31.4,18.3C-34.3,12.5,-36.2,6.3,-37.6,-0.9C-39.1,-8,-40.3,-16,-37.5,-22.1C-34.7,-28.3,-28,-32.6,-21.1,-35.6C-14.2,-38.6,-7.1,-40.4,-0.3,-39.8C6.5,-39.3,12.9,-36.5,19.2,-33.1Z" width="100%" height="100%" transform="translate(50 50)" stroke-width="0" style="transition: all 0.3s ease 0s;" stroke="url(#sw-gradient)"></path>
              </svg>