<!--?xml version="1.0" standalone="no"?-->
              <svg id="sw-js-blob-svg" viewBox="0 0 100 100" xmlns="http://www.w3.org/2000/svg" version="1.1">
                    <defs> 
                        <linearGradient id="sw-gradient" x1="0" x2="1" y1="1" y2="0">
                            <stop id="stop1" stop-color="rgba(0, 49, 104, 1)" offset="0%"></stop>
                            <stop id="stop2" stop-color="rgba(0, 49, 104, 1)" offset="100%"></stop>
                        </linearGradient>
                    </defs>
                <path fill="url(#sw-gradient)" d="M22.2,-37.3C29.1,-34.4,35.3,-29.2,38.1,-22.6C41,-16,40.4,-8,39.4,-0.6C38.4,6.8,36.9,13.6,33.7,19.7C30.6,25.7,25.8,31.1,19.9,34.4C14,37.7,7,38.9,-0.5,39.8C-8,40.7,-16.1,41.2,-23,38.5C-30,35.9,-35.9,30,-39.4,23.1C-42.9,16.1,-44,8.1,-43,0.6C-42.1,-6.9,-39.1,-13.9,-35.6,-20.9C-32.1,-27.8,-28.1,-34.8,-22.1,-38.1C-16.1,-41.5,-8,-41.3,-0.2,-40.9C7.6,-40.6,15.3,-40.1,22.2,-37.3Z" width="100%" height="100%" transform="translate(50 50)" stroke-width="0" style="transition: all 0.3s ease 0s;" stroke="url(#sw-gradient)"></path>
              </svg>